{"asset":{"generator":"glTF-Transform v3.5.1","version":"2.0","extras":{"author":"7SkyArtist (https://sketchfab.com/7SkyArtist)","license":"CC-BY-4.0 (http://creativecommons.org/licenses/by/4.0/)","source":"https://sketchfab.com/3d-models/dragonfly-3cbbe9177ae24f1a8ca953ca7eb8bb86","title":"Dragonfly"}},"accessors":[{"type":"VEC3","componentType":5126,"count":1132,"max":[0.31848248839378357,0.8231068849563599,3.972938299179077],"min":[-0.31848248839378357,-0.7231597304344177,-4.023573875427246],"bufferView":0,"byteOffset":0},{"type":"VEC3","componentType":5126,"count":1132,"bufferView":0,"byteOffset":12},{"type":"VEC4","componentType":5126,"count":1132,"bufferView":0,"byteOffset":24},{"type":"VEC2","componentType":5126,"count":1132,"bufferView":0,"byteOffset":40},{"type":"VEC2","componentType":5126,"count":1132,"bufferView":0,"byteOffset":48},{"type":"VEC3","componentType":5126,"count":240,"max":[0.3818385899066925,0.7602136135101318,-3.541478395462036],"min":[-0.3818385899066925,0.3596838712692261,-3.908813714981079],"bufferView":1,"byteOffset":0},{"type":"VEC3","componentType":5126,"count":240,"bufferView":1,"byteOffset":12},{"type":"VEC2","componentType":5126,"count":240,"bufferView":1,"byteOffset":24},{"type":"VEC2","componentType":5126,"count":240,"bufferView":1,"byteOffset":32},{"type":"VEC3","componentType":5126,"count":96,"max":[1.1681697368621826,1.8902065753936768,2.338108777999878],"min":[-1.1681697368621826,0.21607840061187744,-2.2926273345947266],"bufferView":2,"byteOffset":0},{"type":"VEC3","componentType":5126,"count":96,"bufferView":2,"byteOffset":12},{"type":"VEC2","componentType":5126,"count":96,"bufferView":2,"byteOffset":24},{"type":"VEC3","componentType":5126,"count":858,"max":[0.3167218565940857,0.9335913062095642,-3.804986000061035],"min":[-0.3167218565940857,0.6544854640960693,-3.971322536468506],"bufferView":3,"byteOffset":0},{"type":"VEC3","componentType":5126,"count":858,"bufferView":3,"byteOffset":12},{"type":"VEC4","componentType":5126,"count":858,"bufferView":3,"byteOffset":24},{"type":"VEC2","componentType":5126,"count":858,"bufferView":3,"byteOffset":40},{"type":"VEC2","componentType":5126,"count":858,"bufferView":3,"byteOffset":48},{"type":"VEC3","componentType":5126,"count":12459,"max":[0.4437728524208069,0.4540112614631653,-2.211839199066162],"min":[-0.4437728524208069,-0.9547035694122314,-3.9255104064941406],"bufferView":4,"byteOffset":0},{"type":"VEC3","componentType":5126,"count":12459,"bufferView":4,"byteOffset":12},{"type":"VEC4","componentType":5126,"count":12459,"bufferView":4,"byteOffset":24},{"type":"VEC2","componentType":5126,"count":12459,"bufferView":4,"byteOffset":40},{"type":"VEC2","componentType":5126,"count":12459,"bufferView":4,"byteOffset":48},{"type":"VEC3","componentType":5126,"count":164,"max":[0.43054497241973877,1.0873258113861084,-2.078871488571167],"min":[-0.43054497241973877,-0.09020411223173141,-4.016812324523926],"bufferView":5,"byteOffset":0},{"type":"VEC3","componentType":5126,"count":164,"bufferView":5,"byteOffset":12},{"type":"VEC2","componentType":5126,"count":164,"bufferView":5,"byteOffset":24},{"type":"SCALAR","componentType":5125,"count":6054,"bufferView":6,"byteOffset":0},{"type":"SCALAR","componentType":5125,"count":1248,"bufferView":6,"byteOffset":24216},{"type":"SCALAR","componentType":5125,"count":264,"bufferView":6,"byteOffset":29208},{"type":"SCALAR","componentType":5125,"count":3696,"bufferView":6,"byteOffset":30264},{"type":"SCALAR","componentType":5125,"count":35436,"bufferView":6,"byteOffset":45048},{"type":"SCALAR","componentType":5125,"count":300,"bufferView":6,"byteOffset":186792}],"bufferViews":[{"buffer":0,"byteOffset":0,"byteLength":63392,"byteStride":56,"target":34962},{"buffer":0,"byteOffset":63392,"byteLength":9600,"byteStride":40,"target":34962},{"buffer":0,"byteOffset":72992,"byteLength":3072,"byteStride":32,"target":34962},{"buffer":0,"byteOffset":76064,"byteLength":48048,"byteStride":56,"target":34962},{"buffer":0,"byteOffset":124112,"byteLength":697704,"byteStride":56,"target":34962},{"buffer":0,"byteOffset":821816,"byteLength":5248,"byteStride":32,"target":34962},{"buffer":0,"byteOffset":827064,"byteLength":187992,"target":34963}],"samplers":[{"magFilter":9729,"minFilter":9987,"wrapS":10497,"wrapT":10497}],"textures":[{"source":0,"sampler":0},{"source":1,"sampler":0},{"source":2,"sampler":0},{"source":3,"sampler":0}],"images":[{"mimeType":"image/png","uri":"baseColor_1.png"},{"mimeType":"image/png","uri":"normal_1.png"},{"mimeType":"image/png","uri":"baseColor_2.png"},{"mimeType":"image/png","uri":"metallicRoughness_1.png"}],"buffers":[{"uri":"dragonfly.bin","byteLength":1015056}],"materials":[{"name":"Material","doubleSided":true,"pbrMetallicRoughness":{"roughnessFactor":0.30335857460332605,"metallicFactor":0.693386059352642,"baseColorTexture":{"index":0}},"normalTexture":{"index":1}},{"name":"Material.001","doubleSided":true,"pbrMetallicRoughness":{"roughnessFactor":0.1936633445,"metallicFactor":0.9310590579,"baseColorTexture":{"index":0}}},{"name":"Material2","alphaMode":"BLEND","doubleSided":true,"pbrMetallicRoughness":{"baseColorFactor":[0.5105606758764001,0.5105606758764001,0.5105606758764001,0.705574418251058],"roughnessFactor":0.498372316977984,"metallicFactor":0.4557130608335276,"baseColorTexture":{"index":2},"metallicRoughnessTexture":{"index":3}}}],"meshes":[{"name":"Object_0","primitives":[{"attributes":{"NORMAL":1,"POSITION":0,"TANGENT":2,"TEXCOORD_0":3,"TEXCOORD_1":4},"mode":4,"material":0,"indices":25}]},{"name":"Object_1","primitives":[{"attributes":{"NORMAL":6,"POSITION":5,"TEXCOORD_0":7,"TEXCOORD_1":8},"mode":4,"material":1,"indices":26}]},{"name":"Object_2","primitives":[{"attributes":{"NORMAL":10,"POSITION":9,"TEXCOORD_0":11},"mode":4,"material":2,"indices":27}]},{"name":"Object_3","primitives":[{"attributes":{"NORMAL":13,"POSITION":12,"TANGENT":14,"TEXCOORD_0":15,"TEXCOORD_1":16},"mode":4,"material":0,"indices":28}]},{"name":"Object_4","primitives":[{"attributes":{"NORMAL":18,"POSITION":17,"TANGENT":19,"TEXCOORD_0":20,"TEXCOORD_1":21},"mode":4,"material":0,"indices":29}]},{"name":"Object_5","primitives":[{"attributes":{"NORMAL":23,"POSITION":22,"TEXCOORD_0":24},"mode":4,"material":2,"indices":30}]}],"nodes":[{"name":"Sketchfab_model","rotation":[-0.7071067811865475,0,0,0.7071067811865476],"children":[1]},{"name":"root","children":[2]},{"name":"GLTF_SceneRootNode","rotation":[0.7071067811865475,0,0,0.7071067811865476],"children":[3,5,7,9,11,13]},{"name":"Cube_1","children":[4]},{"name":"Object_4","mesh":0},{"name":"Sphere_2","children":[6]},{"name":"Object_6","mesh":1},{"name":"Plane.001_3","children":[8]},{"name":"Object_8","mesh":2},{"name":"Plane.002_4","children":[10]},{"name":"Object_10","mesh":3},{"name":"Plane.003_5","children":[12]},{"name":"Object_12","mesh":4},{"name":"Plane.004_6","children":[14]},{"name":"Object_14","mesh":5}],"scenes":[{"name":"Sketchfab_Scene","nodes":[0]}],"scene":0}